<svg width="25" height="24" viewBox="0 0 25 24" fill="none" xmlns="http://www.w3.org/2000/svg">
<g clip-path="url(#clip0_1_5852)">
<path d="M0.0297852 4.5C0.0297852 3.70435 0.345856 2.94129 0.908465 2.37868C1.47107 1.81607 2.23414 1.5 3.02979 1.5H23.2798C23.4787 1.5 23.6695 1.57902 23.8101 1.71967C23.9508 1.86032 24.0298 2.05109 24.0298 2.25C24.0298 2.44891 23.9508 2.63968 23.8101 2.78033C23.6695 2.92098 23.4787 3 23.2798 3H22.5298V6C22.9276 6 23.3091 6.15804 23.5904 6.43934C23.8717 6.72064 24.0298 7.10218 24.0298 7.5V20.25C24.0298 20.8467 23.7927 21.419 23.3708 21.841C22.9488 22.2629 22.3765 22.5 21.7798 22.5H3.77979C2.78522 22.5 1.8314 22.1049 1.12813 21.4016C0.424873 20.6984 0.0297852 19.7446 0.0297852 18.75L0.0297852 4.5ZM1.52979 7.098V18.75C1.52979 19.3467 1.76684 19.919 2.1888 20.341C2.61075 20.7629 3.18305 21 3.77979 21H21.7798C21.9787 21 22.1695 20.921 22.3101 20.7803C22.4508 20.6397 22.5298 20.4489 22.5298 20.25V7.5H3.02979C2.50308 7.50069 1.98556 7.36199 1.52979 7.098ZM1.52979 4.5C1.52979 4.89782 1.68782 5.27936 1.96912 5.56066C2.25043 5.84196 2.63196 6 3.02979 6H21.0298V3H3.02979C2.63196 3 2.25043 3.15804 1.96912 3.43934C1.68782 3.72064 1.52979 4.10218 1.52979 4.5Z" fill="#131212"/>
</g>
<defs>
<clipPath id="clip0_1_5852">
<rect width="24" height="24" fill="white" transform="translate(0.0297852)"/>
</clipPath>
</defs>
</svg>
