<svg width="11" height="12" viewBox="0 0 11 12" fill="none" xmlns="http://www.w3.org/2000/svg">
<g clip-path="url(#clip0_1_1366)">
<path fill-rule="evenodd" clip-rule="evenodd" d="M7.82638 1.86172V2.51606H8.85827H8.85911V2.51776C9.18502 2.5186 9.48045 2.65066 9.69377 2.86482C9.9054 3.0773 10.0375 3.37104 10.0383 3.69609H10.04V3.69779V9.90014V9.90098H10.0383C10.0375 10.226 9.9054 10.5215 9.69123 10.7356C9.47876 10.9473 9.18502 11.0793 8.85996 11.0802V11.0819H8.85827H3.63533H3.63448V11.0802C3.30942 11.0793 3.01314 10.9473 2.79982 10.7331C2.5882 10.5206 2.45614 10.2269 2.4553 9.90183H2.4536V9.90014V8.51102H1.42171H1.42087V8.50933C1.09581 8.50848 0.799531 8.37643 0.586211 8.16226C0.374585 7.94979 0.24253 7.65605 0.241683 7.33099H0.23999V7.3293V1.86172V1.86087H0.241683C0.24253 1.53496 0.375431 1.23953 0.588751 1.02621C0.801224 0.814587 1.09496 0.682532 1.42002 0.681686V0.679993H1.42171H6.64465H6.6455V0.681686C6.97141 0.682532 7.26684 0.814587 7.48016 1.02875C7.69178 1.24123 7.82384 1.53496 7.82468 1.86002H7.82638V1.86172ZM6.93077 2.51606V1.86172V1.86002H6.93247C6.93247 1.78299 6.89945 1.71188 6.84697 1.6594C6.79533 1.60776 6.72338 1.57475 6.64635 1.57475V1.57644H6.6455H1.42256H1.42087V1.57475C1.34383 1.57475 1.27273 1.60776 1.22024 1.66025C1.16861 1.71188 1.13559 1.78384 1.13559 1.86087H1.13729V1.86172V7.3293V7.33099H1.13559C1.13559 7.40802 1.16861 7.47913 1.22109 7.53161C1.27273 7.58325 1.34468 7.61626 1.42171 7.61626V7.61457H1.42256H2.45445V3.69779V3.69694H2.45614C2.45699 3.37104 2.58989 3.0756 2.80321 2.86229C3.01568 2.65066 3.30942 2.5186 3.63448 2.51776V2.51606H3.63617H6.93077ZM9.14354 9.90014V3.69779V3.69609H9.14523C9.14523 3.61906 9.11222 3.54795 9.05974 3.49547C9.0081 3.44383 8.93615 3.41082 8.85911 3.41082V3.41251H8.85827H3.63533H3.63363V3.41082C3.5566 3.41082 3.48549 3.44383 3.43301 3.49632C3.38137 3.54796 3.34836 3.61991 3.34836 3.69694H3.35005V3.69779V9.90014V9.90183H3.34836C3.34836 9.97886 3.38137 10.05 3.43386 10.1025C3.48549 10.1541 3.55745 10.1871 3.63448 10.1871V10.1854H3.63533H8.85827H8.85996V10.1871C8.93699 10.1871 9.0081 10.1541 9.06058 10.1016C9.11222 10.05 9.14523 9.97801 9.14523 9.90098H9.14354V9.90014Z" fill="white"/>
</g>
<defs>
<clipPath id="clip0_1_1366">
<rect width="9.8" height="10.4019" fill="white" transform="translate(0.23999 0.679993)"/>
</clipPath>
</defs>
</svg>
