<svg width="24" height="24" viewBox="0 0 200 200" fill="none" xmlns="http://www.w3.org/2000/svg">
<rect width="200" height="200" rx="100" fill="#2E3148"/>
<path d="M100.305 19.6587C90.4634 19.6587 82.4834 55.3538 82.4834 99.3863C82.4834 143.419 90.4634 179.114 100.305 179.114C110.146 179.114 118.126 143.419 118.126 99.3863C118.126 55.3538 110.146 19.6587 100.305 19.6587ZM101.535 174.614C100.41 176.115 99.2843 174.989 99.2843 174.989C94.752 169.738 92.4859 159.982 92.4859 159.982C84.5584 134.469 86.4453 79.692 86.4453 79.692C90.1709 36.2043 96.9482 25.9312 99.2544 23.6505C99.4899 23.4177 99.8 23.2755 100.13 23.2488C100.46 23.2221 100.789 23.3127 101.059 23.5046C104.405 25.8758 107.212 35.7922 107.212 35.7922C115.5 66.5576 114.749 95.447 114.749 95.447C115.5 120.585 110.596 148.723 110.596 148.723C106.822 170.108 101.535 174.614 101.535 174.614Z" fill="#6F7390"/>
<path d="M169.467 59.7096C164.567 51.1702 129.637 62.0129 91.4248 83.9245C53.2127 105.836 26.2583 130.523 31.1545 139.059C36.0508 147.594 70.9844 136.755 109.197 114.844C147.409 92.9321 174.363 68.2453 169.467 59.7096ZM35.6751 137.887C33.7992 137.651 34.223 136.109 34.223 136.109C36.5241 129.566 43.8469 122.745 43.8469 122.745C62.0395 103.172 110.496 77.5498 110.496 77.5498C150.066 59.1392 162.358 59.916 165.476 60.7744C165.796 60.8638 166.074 61.0635 166.261 61.3382C166.448 61.613 166.531 61.945 166.497 62.2755C166.122 66.3599 158.899 73.7265 158.899 73.7265C136.353 96.2339 110.919 109.962 110.919 109.962C89.4884 123.127 62.6405 132.871 62.6405 132.871C42.2117 140.232 35.6759 137.887 35.6759 137.887H35.6751Z" fill="#6F7390"/>
<path d="M169.29 139.342C174.228 130.825 147.341 106.026 109.263 83.9491C71.1852 61.8727 36.2596 50.8958 31.3262 59.4272C26.3927 67.9586 53.2749 92.7438 91.3747 114.82C129.475 136.897 164.356 147.874 169.29 139.342ZM34.5981 62.7181C33.8687 60.9887 35.4084 60.5723 35.4084 60.5723C42.2251 59.2849 51.8001 62.2185 51.8001 62.2185C77.8494 68.1504 124.299 97.2462 124.299 97.2462C160.062 122.271 165.547 133.294 166.369 136.423C166.452 136.744 166.42 137.084 166.277 137.384C166.134 137.683 165.89 137.922 165.588 138.059C161.859 139.767 151.871 137.223 151.871 137.223C121.087 128.968 96.4672 113.845 96.4672 113.845C74.3463 101.914 52.4726 83.556 52.4726 83.556C35.8519 69.5617 34.6032 62.737 34.6032 62.737L34.5981 62.7181Z" fill="#6F7390"/>
<path d="M100.123 108.579C105.303 108.579 109.502 104.379 109.502 99.199C109.502 94.0187 105.303 89.8193 100.123 89.8193C94.9423 89.8193 90.7429 94.0187 90.7429 99.199C90.7429 104.379 94.9423 108.579 100.123 108.579Z" fill="#B7B9C8"/>
<path d="M138.581 68.8068C141.586 68.8068 144.022 66.2872 144.022 63.179C144.022 60.0709 141.586 57.5513 138.581 57.5513C135.577 57.5513 133.141 60.0709 133.141 63.179C133.141 66.2872 135.577 68.8068 138.581 68.8068Z" fill="#B7B9C8"/>
<path d="M49.2802 87.9431C52.2848 87.9431 54.7205 85.4234 54.7205 82.3153C54.7205 79.2071 52.2848 76.6875 49.2802 76.6875C46.2756 76.6875 43.8398 79.2071 43.8398 82.3153C43.8398 85.4234 46.2756 87.9431 49.2802 87.9431Z" fill="#B7B9C8"/>
<path d="M89.05 156.978C92.0546 156.978 94.4903 154.458 94.4903 151.35C94.4903 148.242 92.0546 145.722 89.05 145.722C86.0453 145.722 83.6096 148.242 83.6096 151.35C83.6096 154.458 86.0453 156.978 89.05 156.978Z" fill="#B7B9C8"/>
</svg>
