<svg width="24" height="24" viewBox="0 0 200 200" fill="none" xmlns="http://www.w3.org/2000/svg">
<rect width="200" height="200" rx="100" fill="#F0B90B"/>
<path d="M54.7779 99.9353L54.851 126.764L77.6469 140.178V155.884L41.5101 134.69V92.0901L54.7779 99.9353ZM54.7779 73.1071V88.7406L41.502 80.8873V65.2537L54.7779 57.4004L68.1188 65.2537L54.7779 73.1071ZM87.1668 65.2537L100.443 57.4004L113.784 65.2537L100.443 73.1071L87.1668 65.2537Z" fill="white"/>
<path d="M64.3774 121.203V105.496L77.6533 113.349V128.983L64.3774 121.203ZM87.1733 145.803L100.449 153.657L113.79 145.803V161.437L100.449 169.29L87.1733 161.437V145.803ZM132.83 65.2537L146.106 57.4004L159.447 65.2537V80.8873L146.106 88.7406V73.1071L132.83 65.2537ZM146.106 126.764L146.179 99.9353L159.455 92.082V134.682L123.318 155.876V140.17L146.106 126.764Z" fill="white"/>
<path d="M136.587 121.202L123.312 128.982V113.349L136.587 105.496V121.202Z" fill="white"/>
<path d="M136.586 78.6681L136.659 94.3748L113.798 107.789V134.682L100.522 142.462L87.2465 134.682V107.789L64.3856 94.3748V78.6681L77.7184 70.8148L100.441 84.2939L123.302 70.8148L136.643 78.6681H136.586ZM64.3774 51.848L100.449 30.5806L136.586 51.848L123.31 59.7014L100.449 46.2222L77.6533 59.7014L64.3774 51.848Z" fill="white"/>
</svg>
