<svg width="24" height="24" viewBox="0 0 200 200" fill="none" xmlns="http://www.w3.org/2000/svg">
<rect width="200" height="200" rx="100" fill="#F6931A"/>
<path d="M136.645 103.591C138.516 104.581 140.297 105.732 141.969 107.03C147.807 111.659 150.275 117.678 149.336 125.057C148.714 130.529 146.78 135.771 143.698 140.335C139.908 145.841 134.528 148.816 128.038 149.931C122.658 150.858 117.283 150.558 111.915 149.837C109.961 149.58 108.019 149.248 106.083 148.891C105.457 148.772 105.263 148.973 105.119 149.568C103.64 155.594 102.106 161.607 100.64 167.639C100.433 168.491 100.183 168.642 99.3244 168.41C95.9356 167.495 92.5155 166.662 89.1016 165.842C88.4752 165.704 88.4063 165.528 88.5504 164.94C90.0663 158.951 91.5383 152.95 93.0604 146.962C93.2296 146.286 93.1669 146.004 92.434 145.828C89.7907 145.177 87.1556 144.488 84.529 143.761C83.8587 143.573 83.6645 143.761 83.5079 144.388C82.0296 150.414 80.5013 156.433 79.0292 162.459C78.8601 163.136 78.6659 163.248 77.9957 163.086C74.5463 162.192 71.0824 161.33 67.6038 160.499C66.9774 160.348 66.8897 160.085 67.0338 159.49C68.5622 153.445 70.0405 147.388 71.5814 141.325C71.7819 140.542 71.619 140.285 70.8548 140.072C63.338 138.193 55.8777 136.313 48.386 134.434C47.8536 134.303 47.6908 134.171 47.9413 133.607C49.7704 129.432 51.5765 125.256 53.3596 121.08C53.5851 120.547 53.867 120.56 54.343 120.691C56.9238 121.368 59.4983 122.069 62.0978 122.646C65.3425 123.366 67.2593 122.094 68.0611 118.887C70.5291 108.986 73.0012 99.0869 75.4776 89.1899C77.3567 81.6732 79.2359 74.1564 81.1151 66.6397C81.873 63.5954 80.2758 60.6639 77.1501 59.4612C74.7153 58.6318 72.2296 57.9602 69.7085 57.4505C68.9694 57.2689 68.2364 57.0747 67.491 56.9369C67.0839 56.8617 67.0275 56.7051 67.1215 56.3105C68.1049 52.4081 69.0883 48.5056 70.0342 44.5906C70.1971 43.8891 70.6168 44.1146 70.9989 44.2086C73.968 44.9414 76.9245 45.7056 79.8999 46.4322C84.3974 47.5222 88.8573 48.7812 93.3799 49.7897C94.1253 49.9588 94.4072 49.8649 94.6014 49.0756C96.0421 43.1311 97.5454 37.1742 98.9861 31.261C99.1678 30.5156 99.3933 30.3026 100.176 30.5093C103.571 31.4113 106.985 32.2569 110.399 33.0713C111.119 33.2466 111.188 33.5223 111.025 34.1925C109.535 40.0618 108.088 45.9437 106.603 51.813C106.446 52.4394 106.509 52.621 107.173 52.7713C109.829 53.3539 112.485 53.9803 115.122 54.6505C115.88 54.851 116.093 54.6067 116.262 53.9302C117.665 48.1924 119.106 42.4672 120.503 36.7294C120.697 35.9402 120.916 35.6583 121.818 35.9026C125.176 36.8108 128.564 37.6377 131.947 38.4457C132.611 38.6023 132.743 38.8215 132.573 39.4918C131.058 45.4801 129.598 51.481 128.063 57.463C127.869 58.2272 128.063 58.4527 128.74 58.7158C133.44 60.247 137.915 62.3999 142.044 65.1175C145.922 67.7672 149.135 70.9994 150.877 75.4656C152.756 80.3577 152.386 85.2812 150.92 90.1796C148.853 97.1158 144.308 101.501 137.284 103.334C137.046 103.371 136.889 103.459 136.645 103.591ZM109.422 133.156H110.236C113.168 133.062 116.049 132.743 118.724 131.446C125.483 128.164 126.93 119.169 121.593 113.694C118.461 110.5 114.565 108.683 110.487 107.167C105.476 105.288 100.195 104.211 94.9835 102.952C94.2255 102.77 94.0815 103.008 93.9249 103.647C91.8912 111.911 89.8324 120.167 87.7486 128.415C87.5795 129.079 87.7862 129.242 88.375 129.379C90.6113 129.918 92.8287 130.526 95.0649 131.071C99.7562 132.281 104.567 132.97 109.409 133.125L109.422 133.156ZM114.821 93.9442C116.431 93.9726 118.039 93.834 119.62 93.5308C123.798 92.6538 126.817 90.3988 128.032 86.1832C129.247 81.9675 128.251 78.1654 124.9 75.1211C123.123 73.5552 121.105 72.2862 118.924 71.3627C114.057 69.1892 108.864 68.0992 103.69 66.9341C103.064 66.79 103.014 67.1784 102.907 67.6106C102.156 70.634 101.398 73.6595 100.634 76.6871C99.5374 81.0718 98.4474 85.5004 97.3199 89.8977C97.157 90.5241 97.2635 90.7997 97.9463 90.95C99.2492 91.2256 100.521 91.6203 101.817 91.9398C106.089 92.942 110.38 93.8941 114.809 93.9129L114.821 93.9442Z" fill="white"/>
</svg>
