<svg width="24" height="24" viewBox="0 0 200 200" fill="none" xmlns="http://www.w3.org/2000/svg">
<rect width="200" height="200" rx="100" fill="#E6007A"/>
<g clip-path="url(#clip0_491_6908)">
<path d="M100.036 63.2475C112.435 63.2475 122.487 57.4017 122.487 50.1904C122.487 42.9792 112.435 37.1333 100.036 37.1333C87.6374 37.1333 77.5859 42.9792 77.5859 50.1904C77.5859 57.4017 87.6374 63.2475 100.036 63.2475Z" fill="white"/>
<path d="M100.036 161.636C112.435 161.636 122.487 155.79 122.487 148.579C122.487 141.367 112.435 135.521 100.036 135.521C87.6374 135.521 77.5859 141.367 77.5859 148.579C77.5859 155.79 87.6374 161.636 100.036 161.636Z" fill="white"/>
<path d="M68.7446 81.3226C74.9441 70.585 74.9039 58.9556 68.6547 55.3475C62.4056 51.7394 52.3139 57.5191 46.1144 68.2566C39.9149 78.9942 39.9551 90.6236 46.2043 94.2317C52.4534 97.8398 62.5451 92.0601 68.7446 81.3226Z" fill="white"/>
<path d="M153.943 130.508C160.143 119.771 160.106 108.143 153.861 104.537C147.616 100.932 137.528 106.713 131.328 117.451C125.129 128.189 125.166 139.816 131.411 143.422C137.656 147.027 147.744 141.246 153.943 130.508Z" fill="white"/>
<path d="M68.6633 143.423C74.9124 139.815 74.9527 128.186 68.7531 117.448C62.5536 106.71 52.462 100.931 46.2128 104.539C39.9637 108.147 39.9234 119.776 46.1229 130.514C52.3225 141.251 62.4141 147.031 68.6633 143.423Z" fill="white"/>
<path d="M153.861 94.2375C160.106 90.6319 160.143 79.0044 153.943 68.2668C147.744 57.5292 137.656 51.7477 131.411 55.3533C125.166 58.9589 125.129 70.5864 131.328 81.3239C137.528 92.0615 147.616 97.8431 153.861 94.2375Z" fill="white"/>
</g>
<defs>
<clipPath id="clip0_491_6908">
<rect width="117.073" height="124.506" fill="white" transform="translate(41.502 37.1333)"/>
</clipPath>
</defs>
</svg>
