<svg width="24" height="24" viewBox="0 0 200 200" fill="none" xmlns="http://www.w3.org/2000/svg">
<rect width="200" height="200" rx="100" fill="#EDEFF0"/>
<g clip-path="url(#clip0_491_6893)">
<path d="M100.109 121.415C99.7783 121.527 99.5897 121.239 99.3648 121.107C88.338 114.599 77.3233 108.087 66.3208 101.57C66.2143 101.516 66.1036 101.471 65.99 101.434V101.289L66.1852 101.176C66.4623 101.103 66.7351 101.015 67.0023 100.911L92.9869 89.0885C95.3025 88.0333 97.6181 86.9946 99.9338 85.9492H100.099C100.099 86.28 100.099 86.5744 100.099 86.8887C100.108 98.3985 100.111 109.907 100.109 121.415Z" fill="#393939"/>
<path d="M100.126 85.9575H99.9602C99.9602 85.6267 99.9933 85.2959 99.9933 84.9486C99.9933 72.0208 99.9933 59.0919 99.9933 46.1618C99.9553 45.8298 99.9777 45.4935 100.059 45.1694H100.129C101.489 47.1774 102.673 49.2946 103.923 51.3687C113.83 67.8008 123.731 84.2307 133.626 100.658C133.722 100.821 133.798 100.989 133.884 101.168C133.604 101.108 133.329 101.027 133.06 100.926C131.244 100.106 129.422 99.2724 127.622 98.4354C124.804 97.1453 121.984 95.8574 119.163 94.5717L105.574 88.4154C103.764 87.5818 101.945 86.7713 100.126 85.9575Z" fill="#343434"/>
<path d="M100.07 45.1523C99.9885 45.4764 99.9661 45.8127 100.004 46.1447C100.004 59.0726 100.004 72.0015 100.004 84.9315C100.004 85.2623 99.9842 85.5931 99.971 85.9404C97.6554 86.9858 95.3398 88.0245 93.0241 89.0798L67.0395 100.903C66.7723 101.006 66.4995 101.095 66.2224 101.167C66.9733 99.6059 67.9492 98.1901 68.8391 96.6949C79.1491 79.557 89.4669 62.4225 99.7924 45.2913C99.8606 45.1964 99.9346 45.1058 100.014 45.02L100.07 45.1523Z" fill="#8C8C8C"/>
<path d="M100.126 85.9575C101.946 86.7713 103.765 87.5818 105.581 88.4022L119.171 94.5584C121.993 95.8419 124.813 97.1299 127.629 98.4222C129.442 99.2525 131.268 100.093 133.068 100.913C133.336 101.014 133.611 101.095 133.891 101.155C134.222 101.568 133.733 101.585 133.584 101.674C130.762 103.361 127.927 105.025 125.099 106.699C116.981 111.502 108.865 116.304 100.751 121.105C100.546 121.225 100.325 121.314 100.11 121.416C100.11 109.911 100.11 98.4046 100.11 86.897C100.113 86.5827 100.123 86.2718 100.126 85.9575Z" fill="#141414"/>
<path d="M99.993 127.95L121.247 115.423C125.305 113.028 129.361 110.631 133.414 108.231L133.781 108.029C133.818 108.36 133.589 108.535 133.45 108.727C124.188 121.785 114.925 134.839 105.663 147.888C103.91 150.362 102.16 152.85 100.39 155.304C100.297 155.433 100.155 156.039 99.8706 155.397C100.096 155.205 99.9963 154.947 99.9963 154.735C99.9985 145.804 99.9974 136.875 99.993 127.95Z" fill="#3D3D3C"/>
<path d="M99.9912 127.952C99.9912 136.877 99.9912 145.8 99.9912 154.721C99.9912 154.949 100.09 155.207 99.8655 155.383C99.3924 155.098 99.1873 154.589 98.8731 154.169C88.133 139.04 77.3984 123.909 66.6693 108.776C66.5337 108.584 66.408 108.379 66.269 108.167C66.5469 108.005 66.6958 108.227 66.8579 108.322C77.7193 114.736 88.5784 121.154 99.4354 127.579C99.6372 127.704 99.8092 127.833 99.9912 127.952Z" fill="#8C8C8C"/>
<path d="M100.073 45.1522L99.9934 45.0299C100.139 44.9372 100.119 45.0729 100.142 45.1423L100.073 45.1522Z" fill="#393939"/>
</g>
<defs>
<clipPath id="clip0_491_6893">
<rect width="68" height="110.69" fill="white" transform="translate(66 45)"/>
</clipPath>
</defs>
</svg>
