<svg width="24" height="24" viewBox="0 0 200 200" fill="none" xmlns="http://www.w3.org/2000/svg">
<rect width="200" height="200" rx="100" fill="#8247E5"/>
<g clip-path="url(#clip0_491_6907)">
<path d="M133.4 76.894C130.971 75.5061 127.848 75.5061 125.072 76.894L105.641 88.3446L92.4551 95.6314L73.3708 107.082C70.9419 108.47 67.819 108.47 65.0431 107.082L50.1226 98.0603C47.6937 96.6724 45.9587 93.8965 45.9587 90.7736V73.4242C45.9587 70.6483 47.3467 67.8724 50.1226 66.1374L65.0431 57.4627C67.472 56.0748 70.5949 56.0748 73.3708 57.4627L88.2913 66.4844C90.7202 67.8724 92.4551 70.6483 92.4551 73.7712V85.2218L105.641 77.588V65.7904C105.641 63.0145 104.253 60.2386 101.477 58.5037L73.7178 42.1953C71.2888 40.8073 68.166 40.8073 65.3901 42.1953L36.937 58.8507C34.1611 60.2386 32.7732 63.0145 32.7732 65.7904V98.4073C32.7732 101.183 34.1611 103.959 36.937 105.694L65.0431 122.002C67.472 123.39 70.5949 123.39 73.3708 122.002L92.4551 110.899L105.641 103.265L124.725 92.1615C127.154 90.7736 130.277 90.7736 133.053 92.1615L147.973 100.836C150.402 102.224 152.137 105 152.137 108.123V125.472C152.137 128.248 150.749 131.024 147.973 132.759L133.4 141.434C130.971 142.822 127.848 142.822 125.072 141.434L110.151 132.759C107.723 131.371 105.988 128.595 105.988 125.472V114.369L92.8021 122.002V133.453C92.8021 136.229 94.19 139.005 96.966 140.74L125.072 157.048C127.501 158.436 130.624 158.436 133.4 157.048L161.506 140.74C163.935 139.352 165.67 136.576 165.67 133.453V100.489C165.67 97.7133 164.282 94.9374 161.506 93.2025L133.4 76.894Z" fill="white"/>
</g>
<defs>
<clipPath id="clip0_491_6907">
<rect width="133.243" height="116.241" fill="white" transform="translate(32.7646 41.502)"/>
</clipPath>
</defs>
</svg>
