<svg width="24" height="24" viewBox="0 0 200 200" fill="none" xmlns="http://www.w3.org/2000/svg">
<rect width="200" height="200" rx="100" fill="black"/>
<g clip-path="url(#clip0_491_6909)">
<path d="M132.344 55.4712L110.965 87.1981C109.487 89.3587 112.329 91.9742 114.376 90.1547L135.414 71.8464C135.983 71.3915 136.779 71.7327 136.779 72.5287V129.728C136.779 130.524 135.755 130.865 135.3 130.297L71.6189 54.1066C69.5721 51.6048 66.6154 50.2402 63.3176 50.2402H61.0433C55.13 50.2402 50.2402 55.13 50.2402 61.157V141.668C50.2402 147.695 55.13 152.585 61.157 152.585C64.9097 152.585 68.4349 150.652 70.4818 147.354L91.8605 115.627C93.3388 113.467 90.4959 110.851 88.449 112.671L67.4114 130.865C66.8429 131.32 66.0468 130.979 66.0468 130.183V73.0973C66.0468 72.3012 67.0703 71.9601 67.5252 72.5287L131.206 148.719C133.253 151.221 136.324 152.585 139.508 152.585H141.782C147.809 152.585 152.699 147.695 152.699 141.668V61.157C152.699 55.13 147.809 50.2402 141.782 50.2402C137.916 50.2402 134.39 52.1734 132.344 55.4712Z" fill="white"/>
</g>
<defs>
<clipPath id="clip0_491_6909">
<rect width="102.459" height="102.345" fill="white" transform="translate(50.2402 50.2402)"/>
</clipPath>
</defs>
</svg>
