<svg width="24" height="24" viewBox="0 0 200 200" fill="none" xmlns="http://www.w3.org/2000/svg">
<rect width="200" height="199.043" rx="99.5217" fill="#2D2D2D"/>
<path d="M64.917 121.617C65.5517 120.982 66.4245 120.612 67.3502 120.612H151.296C152.83 120.612 153.597 122.463 152.513 123.548L135.93 140.13C135.295 140.765 134.422 141.136 133.497 141.136H49.5506C48.0166 141.136 47.2496 139.284 48.334 138.2L64.917 121.617Z" fill="url(#paint0_linear_661_7480)"/>
<path d="M64.917 59.7008C65.5782 59.0661 66.4509 58.6958 67.3502 58.6958H151.296C152.83 58.6958 153.597 60.5472 152.513 61.6315L135.93 78.2145C135.295 78.8492 134.422 79.2195 133.497 79.2195H49.5506C48.0166 79.2195 47.2496 77.3681 48.334 76.2838L64.917 59.7008Z" fill="url(#paint1_linear_661_7480)"/>
<path d="M135.93 90.4606C135.295 89.8258 134.422 89.4556 133.497 89.4556H49.5506C48.0166 89.4556 47.2496 91.3069 48.334 92.3913L64.917 108.974C65.5517 109.609 66.4245 109.979 67.3502 109.979H151.296C152.83 109.979 153.597 108.128 152.513 107.044L135.93 90.4606Z" fill="url(#paint2_linear_661_7480)"/>
<defs>
<linearGradient id="paint0_linear_661_7480" x1="143.277" y1="48.7907" x2="85.1796" y2="160.071" gradientUnits="userSpaceOnUse">
<stop stop-color="#00FFA3"/>
<stop offset="1" stop-color="#DC1FFF"/>
</linearGradient>
<linearGradient id="paint1_linear_661_7480" x1="117.874" y1="35.5269" x2="59.7762" y2="146.807" gradientUnits="userSpaceOnUse">
<stop stop-color="#00FFA3"/>
<stop offset="1" stop-color="#DC1FFF"/>
</linearGradient>
<linearGradient id="paint2_linear_661_7480" x1="130.494" y1="42.1167" x2="72.397" y2="153.397" gradientUnits="userSpaceOnUse">
<stop stop-color="#00FFA3"/>
<stop offset="1" stop-color="#DC1FFF"/>
</linearGradient>
</defs>
</svg>
