<svg width="24" height="24" viewBox="0 0 200 200" fill="none" xmlns="http://www.w3.org/2000/svg">
<rect width="200" height="200" rx="100" fill="#26A07B"/>
<path d="M99.9294 45.9615C114.707 45.9615 129.485 45.9615 144.308 45.9615C145.627 45.9615 145.991 46.2797 145.991 47.6211C145.991 54.1006 145.991 60.5574 145.991 67.0142C145.991 68.2646 145.627 68.5374 144.445 68.5147C134.191 68.5147 123.983 68.5147 113.661 68.5147C112.32 68.5147 112.047 68.8785 112.07 70.1289C112.161 74.0242 112.161 77.9119 112.07 81.792C112.07 83.0197 112.32 83.4062 113.639 83.4744C124.435 83.8304 135.167 85.2777 145.672 87.7941C149.125 88.5959 152.468 89.8095 155.63 91.4089C156.904 92.0382 158.058 92.8846 159.041 93.9099C159.415 94.2447 159.714 94.6546 159.919 95.1129C160.124 95.5713 160.23 96.0677 160.23 96.5698C160.23 97.0719 160.124 97.5684 159.919 98.0267C159.714 98.4851 159.415 98.895 159.041 99.2298C157.117 101.102 154.781 102.496 152.22 103.299C145.986 105.513 139.529 107.038 132.963 107.846C126.473 108.84 119.929 109.447 113.366 109.665C112.138 109.665 112.138 110.302 112.138 111.211C112.138 125.944 112.138 140.767 112.138 155.408C112.138 156.909 111.752 157.227 110.297 157.227C103.203 157.227 96.0872 157.227 88.9938 157.227C87.7889 157.227 87.5615 156.886 87.5615 155.772C87.5615 141.176 87.5615 126.603 87.5615 112.007C87.5615 109.733 87.5615 109.733 85.288 109.733C74.6701 109.265 64.1237 107.757 53.7999 105.232C49.9003 104.387 46.1619 102.921 42.7279 100.889C38.1809 98.0475 38.1809 94.8874 42.7279 92.091C47.3112 89.5041 52.3131 87.742 57.5057 86.8847C66.9764 84.9046 76.597 83.7259 86.2656 83.3608C87.3796 83.3608 87.6297 82.997 87.607 81.9512C87.607 77.9953 87.607 74.0621 87.607 70.1289C87.607 68.8557 87.3569 68.4238 85.97 68.4465C75.7393 68.4465 65.5085 68.4465 55.3004 68.4465C53.9136 68.4465 53.6635 68.0146 53.6635 66.7414C53.6635 60.3301 53.6635 53.9187 53.6635 47.4847C53.6635 46.0751 54.1182 45.8706 55.3686 45.8706C70.2374 45.9843 85.0834 45.9615 99.9294 45.9615ZM100.725 105.891C108.483 105.973 116.239 105.639 123.96 104.891C130.867 104.327 137.713 103.171 144.422 101.435C147.124 100.818 149.71 99.7744 152.084 98.3431C155.107 96.3651 155.062 94.2736 152.084 92.2956C150.609 91.3132 149.001 90.5475 147.309 90.0221C136.096 86.9345 124.54 85.2619 112.911 85.0431C111.843 85.0431 112.024 85.6343 112.024 86.2482C112.024 90.7952 112.024 95.4785 112.024 100.094C112.024 101.14 111.774 101.571 110.683 101.617C103.34 101.89 95.9962 101.935 88.6528 101.617C87.6979 101.617 87.4706 101.23 87.4706 100.321C87.4706 95.6376 87.4706 90.977 87.4706 86.3163C87.4706 85.2705 87.175 85.0431 86.1519 85.0659C81.1047 85.2932 76.0575 85.7252 71.0331 86.3163C64.6477 86.9538 58.3417 88.2256 52.2084 90.113C50.395 90.6189 48.6643 91.3847 47.0703 92.3865C44.3194 94.2735 44.3421 96.3197 47.0703 98.2067C48.1338 98.9032 49.2696 99.4825 50.4578 99.9346C54.4715 101.412 58.6221 102.485 62.8485 103.14C75.3679 105.174 88.0431 106.095 100.725 105.891Z" fill="white"/>
</svg>
